<svg width="16" height="28" viewBox="0 0 16 28" fill="none" xmlns="http://www.w3.org/2000/svg">
<path d="M9.96201 4.05087L11.8054 1.593C11.6498 1.45981 11.4849 1.33782 11.3121 1.22793C10.1591 0.496769 8.80867 0.139126 7.44496 0.2038C6.08126 0.268474 4.77071 0.752315 3.69214 1.58931L5.54839 4.06431C6.98648 3.62734 8.52128 3.62267 9.96201 4.05087Z" fill="black"/>
<path d="M3.09256 8.43375C3.70388 9.32294 4.29406 10.24 4.85394 11.1681C5.56907 10.0316 6.33069 8.91494 7.12669 7.8355L4.96881 4.95837L4.968 4.95725L3.00006 2.33337L2.98719 2.3505C2.34843 3.20586 2.00229 4.24427 2.00006 5.31181C1.99884 6.31045 2.30187 7.28577 2.86881 8.10787L3.09256 8.43375Z" fill="black"/>
<path d="M12.6316 8.10787C13.1985 7.28571 13.5014 6.31041 13.5001 5.3118C13.4979 4.24426 13.1517 3.20585 12.513 2.35049C12.5087 2.3448 12.5041 2.33943 12.4998 2.33374L8.18533 8.08637C7.1519 9.46424 6.17421 10.9088 5.27908 12.3801C5.27783 12.3823 5.27708 12.3846 5.27577 12.3867C3.73801 14.9163 2.41217 17.5688 1.31183 20.317L0.079834 23.3969L3.79727 27.5273L5.61458 22.075C7.22872 17.2321 9.51541 12.6402 12.4076 8.43374L12.6316 8.10787Z" fill="black"/>
<path d="M14.1883 20.3169C13.2617 18.0008 12.0201 15.4732 10.6616 13.1295C9.79418 14.6753 9.00514 16.2612 8.29443 17.8871C8.87981 19.2566 9.41512 20.6642 9.88543 22.0753L11.7028 27.5274L15.4202 23.3969L14.1883 20.3169Z" fill="black"/>
</svg>
